<!DOCTYPE svg PUBLIC "-//W3C//DTD SVG 1.1//EN" "http://www.w3.org/Graphics/SVG/1.1/DTD/svg11.dtd">
<!-- Uploaded to: SVG Repo, www.svgrepo.com, Transformed by: SVG Repo Mixer Tools -->
<svg width="64px" height="64px" viewBox="-5.16 -5.16 22.32 22.32" id="meteor-icon-kit__regular-align-left-xs" fill="none" xmlns="http://www.w3.org/2000/svg" transform="matrix(-1, 0, 0, -1, 0, 0)rotate(0)">
<g id="SVGRepo_bgCarrier" stroke-width="0"/>
<g id="SVGRepo_iconCarrier">
<path fill-rule="evenodd" clip-rule="evenodd" d="M1 0H10C10.5523 0 11 0.44772 11 1C11 1.55228 10.5523 2 10 2H1C0.44772 2 0 1.55228 0 1C0 0.44772 0.44772 0 1 0zM1 4H7C7.5523 4 8 4.4477 8 5C8 5.5523 7.5523 6 7 6H1C0.44772 6 0 5.5523 0 5C0 4.4477 0.44772 4 1 4zM1 8H11C11.5523 8 12 8.4477 12 9C12 9.5523 11.5523 10 11 10H1C0.44772 10 0 9.5523 0 9C0 8.4477 0.44772 8 1 8z" fill="#000000"/>
</g>
</svg>